<?xml version="1.0" encoding="utf-8"?>
<!-- Generator: Adobe Illustrator 19.0.0, SVG Export Plug-In . SVG Version: 6.00 Build 0)  -->
<svg version="1.1" class="css-cosmetics" xmlns="http://www.w3.org/2000/svg" xmlns:xlink="http://www.w3.org/1999/xlink" x="0px" y="0px"
	 viewBox="0 0 601.7 494.8" style="enable-background:new 0 0 601.7 494.8;" xml:space="preserve">
<g id="XMLID_20_">
	
		<ellipse id="XMLID_3_" style="fill:#B4DDEF;stroke:#E8B934;stroke-width:26;stroke-linecap:round;stroke-linejoin:round;stroke-miterlimit:10;" cx="310.7" cy="227.6" rx="191.6" ry="214.6"/>
	
		<line id="XMLID_8_" style="fill:none;stroke:#E3F8FF;stroke-width:16;stroke-linecap:round;stroke-linejoin:round;stroke-miterlimit:10;" x1="219.8" y1="130.7" x2="436.7" y2="236.6"/>
	
		<line id="XMLID_7_" style="fill:none;stroke:#E3F8FF;stroke-width:16;stroke-linecap:round;stroke-linejoin:round;stroke-miterlimit:10;" x1="232.4" y1="181.5" x2="340.8" y2="234.5"/>
</g>
<g id="lipstick">
	<g id="XMLID_6_">
		<path id="XMLID_51_" style="fill:#A53D68;" d="M17.9,241.1c-2.5-2.1-4.6-1.2-4.6,2.1v20c0,3.3,0,8.7,0,12v36.7c0,3.3,2.7,6,6,6H45
			c3.3,0,6-2.7,6-6v-36.7c0-3.3-2.1-7.7-4.6-9.9L17.9,241.1z"/>
	</g>
	<rect id="XMLID_1_" x="0" y="286.8" style="fill:#A0A0A0;" width="63.4" height="190.3"/>
	<rect id="XMLID_2_" x="7" y="277.5" style="fill:#606060;" width="48" height="9.3"/>
	
		<line id="XMLID_4_" style="fill:none;stroke:#CCCCCC;stroke-width:16;stroke-linecap:round;stroke-linejoin:round;stroke-miterlimit:10;" x1="17" y1="316.2" x2="17" y2="438.2"/>
</g>
<g id="XMLID_27_">
	<rect id="XMLID_10_" x="80.7" y="185.2" style="fill:#050505;" width="9.6" height="191"/>
	<g id="XMLID_9_">
		<path id="XMLID_44_" style="fill:#6D6D6D;" d="M59.4,364c0-3.3,2.7-6,6-6h40.1c3.3,0,6,2.7,6,6v116.5c0,3.3-2.7,6-6,6H65.4
			c-3.3,0-6-2.7-6-6V364z"/>
	</g>
	<g id="XMLID_22_">
		
			<line id="XMLID_13_" style="fill:none;stroke:#050505;stroke-width:3;stroke-miterlimit:10;" x1="100.6" y1="251.8" x2="70.3" y2="251.8"/>
		
			<line id="XMLID_11_" style="fill:none;stroke:#050505;stroke-width:3;stroke-miterlimit:10;" x1="100.6" y1="246.1" x2="70.3" y2="246.1"/>
		
			<line id="XMLID_16_" style="fill:none;stroke:#050505;stroke-width:3;stroke-miterlimit:10;" x1="100.6" y1="240.5" x2="70.3" y2="240.5"/>
		
			<line id="XMLID_15_" style="fill:none;stroke:#050505;stroke-width:3;stroke-miterlimit:10;" x1="100.6" y1="234.9" x2="70.3" y2="234.9"/>
		
			<line id="XMLID_18_" style="fill:none;stroke:#050505;stroke-width:3;stroke-miterlimit:10;" x1="100.6" y1="229.3" x2="70.3" y2="229.3"/>
		
			<line id="XMLID_17_" style="fill:none;stroke:#050505;stroke-width:3;stroke-miterlimit:10;" x1="100.6" y1="223.7" x2="70.3" y2="223.7"/>
		
			<line id="XMLID_21_" style="fill:none;stroke:#050505;stroke-width:3;stroke-miterlimit:10;" x1="98.4" y1="218.1" x2="72.5" y2="218.1"/>
		
			<line id="XMLID_19_" style="fill:none;stroke:#050505;stroke-width:3;stroke-miterlimit:10;" x1="98.4" y1="212.5" x2="72.5" y2="212.5"/>
		
			<line id="XMLID_24_" style="fill:none;stroke:#050505;stroke-width:3;stroke-miterlimit:10;" x1="97.8" y1="206.8" x2="73.1" y2="206.8"/>
		
			<line id="XMLID_23_" style="fill:none;stroke:#050505;stroke-width:3;stroke-miterlimit:10;" x1="97.8" y1="201.2" x2="73.1" y2="201.2"/>
		
			<line id="XMLID_26_" style="fill:none;stroke:#050505;stroke-width:3;stroke-miterlimit:10;" x1="96.9" y1="195.6" x2="74.1" y2="195.6"/>
		
			<line id="XMLID_25_" style="fill:none;stroke:#050505;stroke-width:3;stroke-miterlimit:10;" x1="96.9" y1="190" x2="74.1" y2="190"/>
	</g>
</g>
<g id="XMLID_28_">
	<path id="XMLID_39_" style="fill:#FC7AAC;" d="M307.2,450.7c-3.9,5.1-3.1,12.8,0.5,18.1s9.5,8.7,15.5,11.1
		c15.7,6.4,33.2,7.2,50.1,5.7c16.9-1.5,33.5-5.4,50.3-8c9.4-1.5,19-2.6,28.3-0.7c8.9,1.8,17,6.1,25.3,9.7
		c21.7,9.3,48.4,12.8,67.7-0.7c10-7,16.9-18.2,18.7-30.3c0.9-6,0.5-12.4-2.1-17.9c-3.8-7.9-11.6-13.1-19.7-16.6
		c-11.2-4.9-23.5-7.4-35.8-7.2c-11.1,0.2-22.3,2.5-33.3,1.1c-10.5-1.3-20.2-5.9-30.2-9.2c-12.2-4.1-25-6.4-37.8-6.9
		c-9.9-0.4-20,0.4-29.3,4c-8.9,3.5-16.6,9.4-23.1,16.4c-4.4,4.7-8.4,10-13.8,13.6c-5.3,3.5-11.6,5.1-17.5,7.5s-11.7,6.2-14,12.1"/>
</g>
<g id="nail-painter">
	<g id="XMLID_30_">
		
			<rect id="XMLID_14_" x="549.3" y="335.5" transform="matrix(0.9719 0.2352 -0.2352 0.9719 103.7991 -119.4749)" style="fill:#050505;" width="6.9" height="79.8"/>
		<g id="XMLID_12_">
			<path id="XMLID_48_" style="fill:#6D6D6D;" d="M563.7,250.3c0.8-3.2,4-5.2,7.2-4.4l26.2,6.3c3.2,0.8,5.2,4,4.4,7.2l-19.8,81.8
				c-0.8,3.2-4,5.2-7.2,4.4l-26.2-6.3c-3.2-0.8-5.2-4-4.4-7.2L563.7,250.3z"/>
		</g>
		<g id="XMLID_29_">
			<path id="XMLID_49_" style="fill:#050505;" d="M544.5,452c-0.3,2.2-2.3,3.5-4.4,3l-11.2-2.7c-2.1-0.5-3.3-2.7-2.7-4.8l10.5-33
				c0.7-2.1,3-3.4,5.1-2.9l3.7,0.9c2.1,0.5,3.7,2.7,3.4,4.9L544.5,452z"/>
		</g>
	</g>
	<g style="opacity:0.9;">
		<path style="fill:#FC7AAC;" d="M521.4,448c0.8,0.4,1.8-0.3,2.1-1.1c0.3-0.9,0.1-1.8,0.1-2.7
			c-0.1-0.9,0-1.9,0.7-2.5c0.4-0.4,1-0.5,1.5-0.6c1.5-0.2,3.1,0.1,4.4,1c1.7,1.1,2.9,3.1,4.9,3.4c1.5,0.2,2.9-0.6,4.2-1.1
			c2-0.8,4.2-1.1,6.4-0.9c0.7,0.1,1.5,0.2,2,0.6c0.4,0.3,0.7,0.8,0.9,1.3c1.5,3.2,0.3,7.3-2.4,9.7c-2.6,2.4-6.4,3.3-9.9,3
			c-3.5-0.2-6.9-1.4-10.2-2.8c-3.3-1.4-6.5-2.9-10-3.8"/>
	</g>
</g>
</svg>
