<?xml version="1.0" encoding="utf-8"?>
<!-- Generator: Adobe Illustrator 19.0.0, SVG Export Plug-In . SVG Version: 6.00 Build 0)  -->
<svg version="1.1" id="Layer_1" xmlns="http://www.w3.org/2000/svg" xmlns:xlink="http://www.w3.org/1999/xlink" x="0px" y="0px"
	 viewBox="-989 561 900 500" style="enable-background:new -989 561 900 500;" xml:space="preserve">
<style type="text/css">
	.st0{fill:#E26D56;}
	.st1{fill:#BF4737;}
	.st2{fill:#57DDB7;}
	.st3{fill:#EDCB5D;}
	.st4{fill:#5296CE;}
	.st5{fill:#FF66A4;}
	.st6{fill:#9B3E71;}
	.st7{fill:#45398E;}
	.st8{fill:#66FBFF;}
	.st9{fill:#9DC667;}
	.st10{fill:#DD6258;}
	.st11{fill:#F4731C;}
</style>
<g id="cone">
	<g id="XMLID_62_">
		<path class="st0" d="M-550.2,758.3l-0.8-0.7l-47.7,116.2L-646.4,990l108.4-63.5l107.8-63.2c-19.3-0.3-47.5-13.6-73.7-36.3
			C-530.3,804-547.5,777.5-550.2,758.3z"/>
	</g>
	<g>
		<path class="st1" d="M-430.1,863.6l0.2-0.1l-0.3-0.2c-2.8-19.2-20.1-45.6-46.5-68.6c-26.3-22.8-54.7-36.2-74-36.5l-0.3,0.1l0,0
			l0,0l-0.2,0.1l0.3,0.2c2.8,19.2,20.1,45.6,46.5,68.6c26.3,22.8,54.7,36.2,74,36.5L-430.1,863.6L-430.1,863.6L-430.1,863.6z"/>
	</g>
</g>
<g id="tada">
	<g id="XMLID_56_">
		<g id="XMLID_58_">
			<path class="st2" d="M-463,836.5c-3.1,0-5.5-1.5-7.1-2.5c-2-1.2-2.6-1.5-3.7-1.2c-2.1,0.6-4.3-0.6-5-2.7s0.6-4.3,2.7-5
				c4.7-1.4,8.1,0.7,10.3,2c2,1.2,2.6,1.5,3.7,1.2c1.2-0.4,1.6-0.9,2.7-3c1.2-2.3,2.9-5.8,7.6-7.2c4.7-1.4,8,0.7,10.3,2
				c2,1.2,2.6,1.5,3.7,1.2c2.1-0.6,4.3,0.6,5,2.7c0.6,2.1-0.6,4.3-2.7,5c-4.7,1.4-8.1-0.7-10.3-2c-2-1.2-2.6-1.5-3.7-1.2
				c-1.4,0.4-1.8,1.1-2.8,3.1c-1.1,2.3-2.9,5.7-7.5,7.1C-461,836.4-462,836.5-463,836.5z"/>
		</g>
	</g>
	<g id="XMLID_55_">
		<path class="st3" d="M-499.4,801c-0.5,0-1.1-0.1-1.6-0.3c-2-0.9-3-3.2-2.1-5.3l8.9-20.5c0.9-2,3.2-3,5.3-2.1c2,0.9,3,3.2,2.1,5.3
			l-8.9,20.5C-496.4,800.1-497.9,801-499.4,801z"/>
	</g>
	<g id="XMLID_54_">
		<path class="st4" d="M-445.9,806.4c-1.7,0-3.3-1.1-3.8-2.9c-0.6-2.1,0.6-4.3,2.7-5l21.3-6.4c2.1-0.6,4.3,0.6,5,2.7
			c0.6,2.1-0.6,4.3-2.7,5l-21.3,6.4C-445.1,806.3-445.5,806.4-445.9,806.4z"/>
	</g>
	<g id="XMLID_51_">
		<g id="XMLID_53_">
			<path class="st5" d="M-519,785.3c-0.2,0-0.4,0-0.6,0c-2.2-0.3-3.7-2.3-3.4-4.5c0.7-4.8,3.9-7,6-8.5c1.9-1.4,2.5-1.8,2.6-3.1
				c0.2-1.2-0.2-1.8-1.7-3.6c-1.7-2-4.1-5-3.4-9.9c0.7-4.9,3.9-7.1,6-8.6c1.9-1.3,2.4-1.8,2.6-3c0.3-2.2,2.4-3.7,4.5-3.4
				c2.2,0.3,3.7,2.3,3.4,4.5c-0.7,4.8-3.9,7-6,8.5c-1.8,1.3-2.5,1.8-2.6,3.1c-0.2,1.3,0.2,1.9,1.7,3.7c1.6,2,4.1,5,3.4,9.8
				c-0.7,4.8-3.9,7-6,8.5c-1.9,1.4-2.5,1.8-2.6,3.1C-515.3,783.9-517,785.3-519,785.3z"/>
		</g>
	</g>
	<g id="XMLID_48_">
		<g id="XMLID_50_">
			<path class="st6" d="M-485,764.8c-1.3,0-2.6-0.7-3.4-1.9c-1.2-1.9-0.6-4.3,1.3-5.5l8-5l-4.1-8.5c-0.9-1.8-0.2-4,1.5-5.1l8.1-5.1
				l-4.1-8.5c-1-2-0.1-4.4,1.9-5.3c2-1,4.4-0.1,5.3,1.9l5.6,11.7c0.9,1.8,0.2,4-1.5,5.1l-8.1,5.1l4.1,8.5c0.9,1.8,0.2,4-1.5,5.1
				l-11,6.9C-483.5,764.6-484.3,764.8-485,764.8z"/>
		</g>
	</g>
	<g id="XMLID_47_">
		<path class="st7" d="M-443.2,849.3c-2,0-3.7-1.5-4-3.5c-0.3-2.2,1.3-4.2,3.5-4.4l22.2-2.6c2.2-0.3,4.2,1.3,4.4,3.5
			c0.3,2.2-1.3,4.2-3.5,4.4l-22.2,2.6C-442.9,849.3-443,849.3-443.2,849.3z"/>
	</g>
	<g id="XMLID_44_">
		<g id="XMLID_46_">
			<path class="st8" d="M-420.5,780.9c-2.2,0-4-0.7-5.5-1.2c-2.2-0.8-2.9-0.9-4.1-0.4c-2,1-4.4,0.2-5.4-1.7s-0.2-4.4,1.7-5.4
				c4.3-2.3,8-0.9,10.4-0.1c2.2,0.8,2.9,0.9,4.1,0.4c1.1-0.6,1.4-1.2,2-3.4c0.7-2.5,1.6-6.2,6-8.5c4.4-2.3,8.1-1,10.5-0.1
				c2.2,0.8,2.9,0.9,4.1,0.4c2-1,4.4-0.3,5.4,1.7c1,2,0.2,4.4-1.7,5.4c-4.4,2.3-8,0.9-10.4,0.1c-2.2-0.8-2.9-0.9-4.1-0.4
				c-1.2,0.6-1.4,1.4-2,3.5c-0.7,2.5-1.7,6.2-6,8.5C-417.3,780.6-419,780.9-420.5,780.9z"/>
		</g>
	</g>
	<g id="XMLID_37_">
		<g id="XMLID_41_">
			<path class="st9" d="M-545.1,748.6c-0.9,0-1.7-0.3-2.5-0.9c-1.7-1.4-2-3.9-0.7-5.6l5.9-7.5l-6.8-6.7c-1.5-1.4-1.6-3.7-0.3-5.3
				l5.9-7.4l-6.7-6.7c-1.6-1.6-1.6-4.1,0-5.7c1.6-1.6,4.1-1.6,5.7,0l9.2,9.2c1.4,1.4,1.6,3.7,0.3,5.3l-5.9,7.4l6.8,6.7
				c1.5,1.4,1.6,3.7,0.3,5.3l-8.1,10.3C-542.7,748.1-543.9,748.6-545.1,748.6z"/>
		</g>
	</g>
	<g id="XMLID_34_">
		<path class="st10" d="M-506.3,720.3c-2.1,0-3.9-1.7-4-3.8l-1.2-22.2c-0.1-2.2,1.6-4.1,3.8-4.2c2.2-0.1,4.1,1.6,4.2,3.8l1.2,22.2
			c0.1,2.2-1.6,4.1-3.8,4.2C-506.2,720.3-506.2,720.3-506.3,720.3z"/>
	</g>
	<g id="XMLID_16_">
		<g id="XMLID_17_">
			<path class="st11" d="M-397,821.4c-0.5,0-1-0.1-1.4-0.3l-12.3-4.7c-2.1-0.8-3.1-3.1-2.3-5.2s3.1-3.1,5.2-2.3l9,3.4l4.4-8.4
				c0.9-1.8,3.1-2.6,5-1.9l8.8,3.4l4.4-8.4c1-2,3.5-2.7,5.4-1.7c2,1,2.7,3.5,1.7,5.4l-6.1,11.5c-1,1.8-3.1,2.6-5,1.9l-8.8-3.4
				l-4.3,8.4C-394.2,820.6-395.5,821.4-397,821.4z"/>
		</g>
	</g>
</g>
</svg>
